<?xml version="1.0"?>
<svg xmlns="http://www.w3.org/2000/svg" xmlns:xlink="http://www.w3.org/1999/xlink" xmlns:svgjs="http://svgjs.com/svgjs" version="1.1" width="512" height="512" x="0" y="0" viewBox="0 0 413.099 413.099" style="enable-background:new 0 0 512 512" xml:space="preserve" class=""><circle r="206.5495" cx="206.5495" cy="206.5495" fill="#282c3f" shape="circle"/><g transform="matrix(0.5,0,0,0.5,103.27441406249996,103.27441406249996)">
<g xmlns="http://www.w3.org/2000/svg">
	<g>
		<path d="M206.549,0L206.549,0c-82.6,0-149.3,66.7-149.3,149.3c0,28.8,9.2,56.3,22,78.899l97.3,168.399c6.1,11,18.4,16.5,30,16.5    c11.601,0,23.3-5.5,30-16.5l97.3-168.299c12.9-22.601,22-49.601,22-78.901C355.849,66.8,289.149,0,206.549,0z M206.549,193.4    c-30,0-54.5-24.5-54.5-54.5s24.5-54.5,54.5-54.5s54.5,24.5,54.5,54.5C261.049,169,236.549,193.4,206.549,193.4z" fill="#ffffff" data-original="#000000" style="" class=""/>
	</g>
</g>
<g xmlns="http://www.w3.org/2000/svg">
</g>
<g xmlns="http://www.w3.org/2000/svg">
</g>
<g xmlns="http://www.w3.org/2000/svg">
</g>
<g xmlns="http://www.w3.org/2000/svg">
</g>
<g xmlns="http://www.w3.org/2000/svg">
</g>
<g xmlns="http://www.w3.org/2000/svg">
</g>
<g xmlns="http://www.w3.org/2000/svg">
</g>
<g xmlns="http://www.w3.org/2000/svg">
</g>
<g xmlns="http://www.w3.org/2000/svg">
</g>
<g xmlns="http://www.w3.org/2000/svg">
</g>
<g xmlns="http://www.w3.org/2000/svg">
</g>
<g xmlns="http://www.w3.org/2000/svg">
</g>
<g xmlns="http://www.w3.org/2000/svg">
</g>
<g xmlns="http://www.w3.org/2000/svg">
</g>
<g xmlns="http://www.w3.org/2000/svg">
</g>
</g></svg>
