<?xml version="1.0"?>
<svg xmlns="http://www.w3.org/2000/svg" xmlns:xlink="http://www.w3.org/1999/xlink" xmlns:svgjs="http://svgjs.com/svgjs" version="1.1" width="512" height="512" x="0" y="0" viewBox="0 0 512 512" style="enable-background:new 0 0 512 512" xml:space="preserve" class=""><g><g xmlns="http://www.w3.org/2000/svg"><g><path d="m512 256c0 68.38-26.63 132.67-74.98 181.02s-112.64 74.98-181.02 74.98c-9.57 0-19.06-.52-28.43-1.56-57.63-6.32-111.01-31.84-152.59-73.42-48.35-48.35-74.98-112.64-74.98-181.02s26.63-132.67 74.98-181.02c41.58-41.58 94.96-67.1 152.59-73.42 9.37-1.04 18.86-1.56 28.43-1.56 68.38 0 132.67 26.63 181.02 74.98s74.98 112.64 74.98 181.02z" fill="#60b246" data-original="#f0f7ff" style="" class=""/></g><path d="m512 256c0 68.38-26.63 132.67-74.98 181.02s-112.64 74.98-181.02 74.98c-9.57 0-19.06-.52-28.43-1.56v-508.88c9.37-1.04 18.86-1.56 28.43-1.56 68.38 0 132.67 26.63 181.02 74.98s74.98 112.64 74.98 181.02z" fill="#60b246" data-original="#dfe7f4" style="" class=""/><path d="m395.67 218.92-104.45 105.98.52.52-30.54 30.54c-18.247 18.247-47.884 18.315-66.21.01l-30.57-30.55.02-.02-47.88-47.89c-8.79-8.79-13.18-20.3-13.18-31.82 0-11.51 4.39-23.03 13.18-31.82 17.57-17.57 46.06-17.57 63.63 0l47.38 47.38 104.01-105.51c17.53-17.79 46.2-17.89 63.86-.23 17.49 17.48 17.59 45.8.23 63.41z" fill="#ffffff" data-original="#97de3d" style="" class=""/><path d="m395.67 218.92-104.45 105.98.52.52-30.54 30.54c-9.27 9.27-21.47 13.84-33.63 13.71v-108.42l104.01-105.51c17.53-17.79 46.2-17.89 63.86-.23 17.49 17.48 17.59 45.8.23 63.41z" fill="#ffffff" data-original="#59c36a" style="" class=""/></g></g></svg>
