<?xml version="1.0"?>
<svg xmlns="http://www.w3.org/2000/svg" xmlns:xlink="http://www.w3.org/1999/xlink" xmlns:svgjs="http://svgjs.com/svgjs" version="1.1" width="512" height="512" x="0" y="0" viewBox="0 0 511.626 511.627" style="enable-background:new 0 0 512 512" xml:space="preserve" class=""><circle r="255.813" cx="255.813" cy="255.8135" fill="#282c3f" shape="circle" transform="matrix(1,0,0,1,0,0)"/><g transform="matrix(0.5,0,0,0.5,127.90624999999996,137.90722656249997)">
<g xmlns="http://www.w3.org/2000/svg">
	<path d="M475.366,71.951c-24.175-23.606-57.575-35.404-100.215-35.404c-11.8,0-23.843,2.046-36.117,6.136   c-12.279,4.093-23.702,9.615-34.256,16.562c-10.568,6.945-19.65,13.467-27.269,19.556c-7.61,6.091-14.845,12.564-21.696,19.414   c-6.854-6.85-14.087-13.323-21.698-19.414c-7.616-6.089-16.702-12.607-27.268-19.556c-10.564-6.95-21.985-12.468-34.261-16.562   c-12.275-4.089-24.316-6.136-36.116-6.136c-42.637,0-76.039,11.801-100.211,35.404C12.087,95.552,0,128.288,0,170.162   c0,12.753,2.24,25.889,6.711,39.398c4.471,13.514,9.566,25.031,15.275,34.546c5.708,9.514,12.181,18.796,19.414,27.837   c7.233,9.042,12.519,15.27,15.846,18.699c3.33,3.422,5.948,5.899,7.851,7.419L243.25,469.937c3.427,3.429,7.614,5.144,12.562,5.144   s9.138-1.715,12.563-5.137l177.87-171.307c43.588-43.583,65.38-86.41,65.38-128.475C511.626,128.288,499.537,95.552,475.366,71.951   z" fill="#ffffff" data-original="#000000" style=""/>
</g>
<g xmlns="http://www.w3.org/2000/svg">
</g>
<g xmlns="http://www.w3.org/2000/svg">
</g>
<g xmlns="http://www.w3.org/2000/svg">
</g>
<g xmlns="http://www.w3.org/2000/svg">
</g>
<g xmlns="http://www.w3.org/2000/svg">
</g>
<g xmlns="http://www.w3.org/2000/svg">
</g>
<g xmlns="http://www.w3.org/2000/svg">
</g>
<g xmlns="http://www.w3.org/2000/svg">
</g>
<g xmlns="http://www.w3.org/2000/svg">
</g>
<g xmlns="http://www.w3.org/2000/svg">
</g>
<g xmlns="http://www.w3.org/2000/svg">
</g>
<g xmlns="http://www.w3.org/2000/svg">
</g>
<g xmlns="http://www.w3.org/2000/svg">
</g>
<g xmlns="http://www.w3.org/2000/svg">
</g>
<g xmlns="http://www.w3.org/2000/svg">
</g>
</g></svg>
