<?xml version="1.0"?>
<svg xmlns="http://www.w3.org/2000/svg" xmlns:xlink="http://www.w3.org/1999/xlink" xmlns:svgjs="http://svgjs.com/svgjs" version="1.1" width="512" height="512" x="0" y="0" viewBox="0 0 512.029 512.029" style="enable-background:new 0 0 512 512" xml:space="preserve" class=""><rect width="512.029" height="512.029" fill="#ffffff" shape="square"/><g transform="matrix(0.7,0,0,0.7,76.8042091554031,76.80427551269531)">
<path xmlns="http://www.w3.org/2000/svg" style="" d="M192.014,0C86.02,0.106,0.12,86.005,0.014,192c0,133.088,173.312,307.936,180.672,315.328  c6.24,6.256,16.371,6.269,22.627,0.029c0.01-0.01,0.019-0.019,0.029-0.029c7.36-7.392,180.672-182.24,180.672-315.328  C383.908,86.005,298.009,0.106,192.014,0z" fill="#ffc107" data-original="#ffc107"/>
<circle xmlns="http://www.w3.org/2000/svg" style="" cx="192.014" cy="192" r="96" fill="#fafafa" data-original="#fafafa"/>
<circle xmlns="http://www.w3.org/2000/svg" style="" cx="384.014" cy="384" r="128" fill="#5fb145" data-original="#2196f3" class=""/>
<path xmlns="http://www.w3.org/2000/svg" d="M192.014,512c-4.246,0.008-8.322-1.673-11.328-4.672C173.326,499.936,0.014,325.088,0.014,192c0-106.039,85.961-192,192-192  s192,85.961,192,192c0.044,6.569-0.459,13.13-1.504,19.616c-1.604,8.69-9.949,14.434-18.639,12.83  c-8.497-1.568-14.214-9.6-12.913-18.142c0.739-4.732,1.092-9.515,1.056-14.304c0-88.366-71.634-160-160-160s-160,71.634-160,160  c0,101.664,121.792,240,160,280.864c5.536-5.952,12.8-13.92,21.216-23.52c5.806-6.663,15.913-7.358,22.576-1.552  c6.663,5.806,7.358,15.913,1.552,22.576c-19.968,22.88-34.016,36.96-34.016,36.96C200.336,510.327,196.261,512.008,192.014,512z" fill="#000000" data-original="#000000" style=""/>
<path xmlns="http://www.w3.org/2000/svg" d="M192.014,288c-53.019,0-96-42.981-96-96s42.981-96,96-96s96,42.981,96,96S245.034,288,192.014,288z M192.014,128  c-35.346,0-64,28.654-64,64s28.654,64,64,64s64-28.654,64-64S227.361,128,192.014,128z" fill="#000000" data-original="#000000" style=""/>
<path xmlns="http://www.w3.org/2000/svg" d="M384.014,512c-70.692,0-128-57.308-128-128s57.308-128,128-128s128,57.308,128,128S454.707,512,384.014,512z M384.014,288  c-53.019,0-96,42.981-96,96s42.981,96,96,96s96-42.981,96-96S437.034,288,384.014,288z" fill="#000000" data-original="#000000" style=""/>
<path xmlns="http://www.w3.org/2000/svg" d="M432.014,400h-96c-8.837,0-16-7.163-16-16s7.163-16,16-16h96c8.837,0,16,7.163,16,16S440.851,400,432.014,400z" fill="#000000" data-original="#000000" style=""/>
<path xmlns="http://www.w3.org/2000/svg" d="M384.014,448c-8.837,0-16-7.163-16-16v-96c0-8.837,7.163-16,16-16s16,7.163,16,16v96  C400.014,440.837,392.851,448,384.014,448z" fill="#000000" data-original="#000000" style=""/>
<g xmlns="http://www.w3.org/2000/svg">
</g>
<g xmlns="http://www.w3.org/2000/svg">
</g>
<g xmlns="http://www.w3.org/2000/svg">
</g>
<g xmlns="http://www.w3.org/2000/svg">
</g>
<g xmlns="http://www.w3.org/2000/svg">
</g>
<g xmlns="http://www.w3.org/2000/svg">
</g>
<g xmlns="http://www.w3.org/2000/svg">
</g>
<g xmlns="http://www.w3.org/2000/svg">
</g>
<g xmlns="http://www.w3.org/2000/svg">
</g>
<g xmlns="http://www.w3.org/2000/svg">
</g>
<g xmlns="http://www.w3.org/2000/svg">
</g>
<g xmlns="http://www.w3.org/2000/svg">
</g>
<g xmlns="http://www.w3.org/2000/svg">
</g>
<g xmlns="http://www.w3.org/2000/svg">
</g>
<g xmlns="http://www.w3.org/2000/svg">
</g>
</g></svg>
