<?xml version="1.0"?>
<svg xmlns="http://www.w3.org/2000/svg" xmlns:xlink="http://www.w3.org/1999/xlink" xmlns:svgjs="http://svgjs.com/svgjs" version="1.1" width="512" height="512" x="0" y="0" viewBox="0 0 511.998 511.998" style="enable-background:new 0 0 512 512" xml:space="preserve"><circle r="255.999" cx="255.999" cy="255.999" fill="#282c3f" shape="circle"/><g transform="matrix(0.5,0,0,0.5,128,127.99902343750004)"><g xmlns="http://www.w3.org/2000/svg"><path d="m354.099 399.601-27.218-30.785-22.475 19.872 48.725 55.108 78.919-81.747-21.583-20.836z" fill="#ffffff" data-original="#000000" style=""/><path d="m369.451 265.331c-2.735 0-5.447.099-8.138.275l-8.698-148.885h-70.979v-28.95c-.001-48.397-39.375-87.771-87.772-87.771s-87.771 39.374-87.771 87.771v28.95h-70.98l-15.766 269.873c-1.227 21.013 6.051 41.018 20.494 56.329s33.989 23.743 55.037 23.743h179.112c22.636 27.652 57.021 45.332 95.461 45.332 68.006 0 123.333-55.327 123.333-123.333 0-68.007-55.327-123.334-123.333-123.334zm-233.359-177.56c0-31.855 25.916-57.771 57.771-57.771s57.772 25.916 57.772 57.771v28.95h-115.543zm-41.214 348.895c-12.702 0-24.498-5.089-33.214-14.329s-13.108-21.313-12.368-33.993l14.115-241.622h42.681v37.588h30v-37.588h115.543v37.588h30v-37.588h42.681l7.277 124.562c-49.541 16.016-85.475 62.578-85.475 117.382 0 17.017 3.465 33.24 9.725 48.001h-160.965zm274.573 45.332c-51.464 0-93.333-41.869-93.333-93.333 0-51.465 41.869-93.334 93.333-93.334s93.333 41.869 93.333 93.334c0 51.464-41.869 93.333-93.333 93.333z" fill="#ffffff" data-original="#000000" style=""/></g></g></svg>
