<?xml version="1.0"?>
<svg xmlns="http://www.w3.org/2000/svg" xmlns:xlink="http://www.w3.org/1999/xlink" xmlns:svgjs="http://svgjs.com/svgjs" version="1.1" width="512" height="512" x="0" y="0" viewBox="0 0 512.443 512.443" style="enable-background:new 0 0 512 512" xml:space="preserve" class=""><rect width="512.443" height="512.443" rx="20" ry="20" fill="#282c3f" shape="rounded"/><g transform="matrix(0.7,0,0,0.7,76.86643524169924,76.86642150878907)">
<g xmlns="http://www.w3.org/2000/svg">
	<g>
		<path d="M220.643,3.003c-71.68,12.8-128,71.68-140.8,143.36c-12.8,69.12,15.36,133.12,64,171.52    c48.64,40.96,84.48,94.72,102.4,156.16l10.24,38.4l12.8-38.4c17.92-64,58.88-117.76,107.52-161.28    c35.84-30.72,58.88-79.36,58.88-133.12C435.683,69.563,335.843-17.477,220.643,3.003z M256.483,282.043    c-56.32,0-102.4-46.08-102.4-102.4s46.08-102.4,102.4-102.4s102.4,46.08,102.4,102.4S312.803,282.043,256.483,282.043z" fill="#ffffff" data-original="#000000" style="" class=""/>
	</g>
</g>
<g xmlns="http://www.w3.org/2000/svg">
</g>
<g xmlns="http://www.w3.org/2000/svg">
</g>
<g xmlns="http://www.w3.org/2000/svg">
</g>
<g xmlns="http://www.w3.org/2000/svg">
</g>
<g xmlns="http://www.w3.org/2000/svg">
</g>
<g xmlns="http://www.w3.org/2000/svg">
</g>
<g xmlns="http://www.w3.org/2000/svg">
</g>
<g xmlns="http://www.w3.org/2000/svg">
</g>
<g xmlns="http://www.w3.org/2000/svg">
</g>
<g xmlns="http://www.w3.org/2000/svg">
</g>
<g xmlns="http://www.w3.org/2000/svg">
</g>
<g xmlns="http://www.w3.org/2000/svg">
</g>
<g xmlns="http://www.w3.org/2000/svg">
</g>
<g xmlns="http://www.w3.org/2000/svg">
</g>
<g xmlns="http://www.w3.org/2000/svg">
</g>
</g></svg>
